<svg xmlns="http://www.w3.org/2000/svg" version="1.1" xmlns:xlink="http://www.w3.org/1999/xlink" xmlns:svgjs="http://svgjs.dev/svgjs" viewBox="0 0 8.054102841901486 8.063710450132222"><g transform="matrix(1,0,0,1,2.5038194201962085,2.5090906022730284)"><g><path d=" M -1.1145168243194095 1.3090099725748274 L -1.1062365543396064 1.504834989181648 L -1.488858524127151 1.7822470080919672 L -1.095210276458338 1.7656019755815469 L -1.086930006478535 1.9614269921883676 L -1.7913006019265378 1.9912106163504142 L -1.7995808719063409 1.7953855997435935 L -1.4119633659808672 1.5177623494562384 L -1.810607149787609 1.5346186133436945 L -1.818887419767412 1.338793596736874 L -1.1145168243194095 1.3090099725748274 M -1.0968650570921437 1.000177953103111 Q -1.1634995515169306 1.0680829908599152 -1.255829411611697 1.0932563286378274 Q -1.3481592717064634 1.1184296664157396 -1.4485211776260885 1.0911626929830254 Q -1.5488830835457135 1.063895719550311 -1.6157812472657365 0.9954622796916499 Q -1.6826794109857595 0.9270288398329889 -1.7053091117298698 0.8348719266672799 Q -1.72793881247398 0.742715013501571 -1.7019827512255308 0.6471781992126973 Q -1.6757645075402283 0.5506763665976733 -1.609743613496943 0.4831227467855175 Q -1.5437227194536574 0.4155691269733618 -1.4515239505773176 0.3908782983585247 Q -1.3593251817009777 0.36618746974368765 -1.2589632757813527 0.393454443176402 Q -1.158601369861728 0.42072141660911644 -1.0915721149232782 0.4886723473047023 Q -1.0245428599848285 0.5566232780002882 -1.0014306500776433 0.6489112823844236 Q -0.978318440170458 0.7411992867685591 -1.0042745014189074 0.8367361010574328 Q -1.0302305626673565 0.9322729153463065 -1.0968650570921437 1.000177953103111 M -1.1961251159925295 0.6618172864955811 Q -1.2320060779707847 0.6069920499022476 -1.3111375807151044 0.5854930900802997 Q -1.3921991201117245 0.5634697653846458 -1.4504074449331177 0.5927322143848095 Q -1.5086157697545108 0.6219946633849733 -1.5282794525184875 0.6943710378462413 Q -1.5482053177193174 0.7677124306336596 -1.5126757736857106 0.8219240668454915 Q -1.4771462296521038 0.8761357030573235 -1.3960846902554838 0.8981590277529774 Q -1.315988169185014 0.9199201700117783 -1.2579109355820473 0.8911402301746896 Q -1.1998337019790806 0.8623602903376009 -1.179907836778251 0.7890188975501826 Q -1.1602441540142743 0.7166425230889146 -1.1961251159925295 0.6618172864955811 M -1.0836540523751461 -0.5826589869415475 L -0.6208925655896522 0.0020852360723094265 L -0.7562130492301559 0.21348383282096386 L -1.4815286218041965 0.03890342102859978 L -1.3683122809097514 -0.1379639308328242 L -0.8533594397641511 0.0016948368692938365 L -1.1963312678367606 -0.4066338605651778 L -1.0836540523751461 -0.5826589869415475 M -0.1545184109869856 -0.6477587903940121 L -0.34518524159109754 -0.486061048581138 L -0.2997856386090004 -0.37377624974768964 L -0.4568951070267886 -0.24053731049388138 L -0.7168772370780667 -0.9444430513811115 L -0.5445144222119496 -1.0906178099799497 L 0.10671604423896619 -0.7185158352927373 L -0.05115609150123851 -0.5846301050716776 L -0.1545184109869856 -0.6477587903940121 M -0.28890775487311604 -0.730466131361156 L -0.4943388119101072 -0.8551981673609923 L -0.40407052055799964 -0.63280069530618 L -0.28890775487311604 -0.730466131361156 M 0.4403380844617157 -0.9328543773202536 Q 0.34621876221415476 -0.9612234305236966 0.3037448494419015 -1.0617866779544305 L 0.5004548961261304 -1.1323994072140229 Q 0.5157793034115734 -1.0985887204219766 0.5394056540546999 -1.0890077207200644 Q 0.5630320046978262 -1.0794267210181523 0.5912678965663759 -1.0895625194764669 Q 0.6166801992480706 -1.0986847380889502 0.6285900268651494 -1.117303438530481 Q 0.6404998544822285 -1.135922138972012 0.6323912157155768 -1.1585108524668515 Q 0.6219175573086516 -1.1876879407310195 0.588879242709342 -1.193890340946827 Q 0.5558409281100324 -1.200092741162634 0.4875681034740213 -1.1978969688109369 Q 0.41485477335831594 -1.1962321494560344 0.3675899376494118 -1.2021088241458826 Q 0.3203251019405077 -1.2079854988357306 0.27665622761119524 -1.2364025608726605 Q 0.2329873532818829 -1.2648196229095903 0.2103507367249801 -1.327879781416018 Q 0.1873762602194668 -1.3918811363180636 0.20299073016288094 -1.4490163997583088 Q 0.21860520010629508 -1.5061516631985539 0.26663048512813203 -1.5499531700056415 Q 0.31465577014996904 -1.5937546768127286 0.38618669621696133 -1.6194320329071261 Q 0.5019538528780148 -1.6609888065862162 0.5905587350010644 -1.6317027200610337 Q 0.6791636171241141 -1.6024166335358512 0.7190070337576966 -1.5062215081345984 L 0.5185322014909944 -1.4342573390805642 Q 0.5067794867398404 -1.4640377637917399 0.4839615942431337 -1.472846497072339 Q 0.46114370174642694 -1.481655230352938 0.43384900627349565 -1.4718572918432338 Q 0.4131426855698926 -1.4644243729738031 0.40435811536317245 -1.447458780550218 Q 0.3955735451564524 -1.4304931881266332 0.40368218392310407 -1.4079044746317932 Q 0.4104393828953139 -1.389080546719427 0.42992689628224995 -1.380670028186424 Q 0.449414409669186 -1.372259509653421 0.47460945622881756 -1.3701477263174697 Q 0.499804502788449 -1.3680359429815185 0.5475640997690413 -1.3681804983390977 Q 0.61839503709351 -1.369169597796779 0.6669389291466429 -1.362689586659923 Q 0.7154828211997759 -1.3562095755230672 0.7588138355804779 -1.3287337098817558 Q 0.8021448499611796 -1.301257844240444 0.8230921667750299 -1.2429036677121081 Q 0.8443773435374908 -1.183608294788154 0.8316226545060383 -1.1259058866260077 Q 0.8188679654745856 -1.0682034784638612 0.7726647184449997 -1.0208061160486057 Q 0.7264614714154138 -0.9734087536333503 0.65022456337033 -0.9460420977959008 Q 0.5344574067092767 -0.9044853241168105 0.4403380844617157 -0.9328543773202536 M 1.1706859643512935 -1.1252554344070473 Q 1.0848532153876511 -1.1662918719393718 1.0311207437503527 -1.245483547586165 Q 0.9773882721130543 -1.3246752232329584 0.970664267670668 -1.428457629084137 Q 0.9639402632282817 -1.5322400349353158 1.0070048432021788 -1.6177031378024118 Q 1.0500694231760759 -1.7031662406695076 1.1299216874193265 -1.7544362698798182 Q 1.2097739516625772 -1.8057062990901285 1.3085668187709107 -1.8121070340881693 Q 1.4083575936278132 -1.818572422975079 1.4936590617727363 -1.7780026123726045 Q 1.5789605299176597 -1.73743280177013 1.6321940476806736 -1.6582087991789023 Q 1.6854275654436877 -1.5789847965876742 1.6921515698860738 -1.4752023907364955 Q 1.69887557432846 -1.3714199848853168 1.6563099482288475 -1.2859892089626555 Q 1.613744322129235 -1.200558433039994 1.533924384830419 -1.1487894499553992 Q 1.4541044475316027 -1.0970204668708043 1.3553115804232692 -1.0906197318727635 Q 1.2565187133149356 -1.0842189968747227 1.1706859643512935 -1.1252554344070473 M 1.458628600299937 -1.3287979076231968 Q 1.4988695468081037 -1.3805078314688848 1.4935679279208376 -1.462336266851545 Q 1.4881370012558333 -1.546160517731343 1.4415923005829294 -1.591746599371135 Q 1.3950475999100256 -1.637332681010927 1.3202045187673486 -1.6324836393457447 Q 1.2443635298761024 -1.627569943791693 1.2045892102977858 -1.5763913007647241 Q 1.1648148907194689 -1.5252126577377552 1.1702458173844732 -1.441388406857957 Q 1.1756120901606084 -1.3585620637267277 1.2216578369592277 -1.3129436551425013 Q 1.2677035837578472 -1.2673252465582747 1.343544572649093 -1.2722389421123264 Q 1.4183876537917701 -1.2770879837775087 1.458628600299937 -1.3287979076231968 M 2.4475937121562286 -1.6876015531621327 L 2.415988171454241 -1.5348367345783533 L 2.139836384014332 -1.5919698273857925 L 2.1147140311486496 -1.4705413818448396 L 2.318400455927022 -1.4284006609088562 L 2.288213112564226 -1.2824906739281952 L 2.084526687785854 -1.3246313948641788 L 2.028609192697722 -1.0543551773698 L 1.8366739078104095 -1.094064702867169 L 1.9795066398290073 -1.7844441714669408 L 2.4475937121562286 -1.6876015531621327 M 3.1953406107741507 -1.3727997718603593 L 3.1291907217033756 -1.2315192276374403 L 2.9589295530244732 -1.3112383247227335 L 2.7261328280253987 -0.8140394863997691 L 2.5486265032325006 -0.8971508854886918 L 2.781423228231575 -1.3943497238116564 L 2.6129733485811717 -1.4732207453960422 L 2.679123237651947 -1.614501289618961 L 3.1953406107741507 -1.3727997718603593 M 4.210387675144581 -0.5128775555655316 L 3.5954913267743156 -0.12705832229570901 L 3.422441135901278 -0.2947921335527279 L 3.6534583058114336 -0.6725011051256868 L 3.2817032213323345 -0.43120635349619557 L 3.1086530304592968 -0.5989401647532144 L 3.4765399777493755 -1.2241802738421845 L 3.6287667016708856 -1.076630199209454 L 3.3521792270887527 -0.6734585621809077 L 3.767350464486223 -0.9423039520202232 L 3.9217313401613394 -0.792665904633256 L 3.666597144449443 -0.3742707060727996 L 4.05816095122307 -0.6604276301982619 L 4.210387675144581 -0.5128775555655316 M 4.057954979806419 0.4678957634074904 L 3.9513885993561093 0.24174624083952234 L 3.831161729146397 0.25639204841633356 L 3.743351031655342 0.07004484182032783 L 4.49064292439993 0.0020093581503263236 L 4.58697893232701 0.20644852655176948 L 4.058361252266456 0.7385428305312415 L 3.9701242892536004 0.5512910258449639 L 4.057954979806419 0.4678957634074904 M 4.172757682778939 0.359630628713983 L 4.346609867704032 0.19369263488263846 L 4.108391588986952 0.22303631708293026 L 4.172757682778939 0.359630628713983 M 4.131527415502138 1.1904784498838763 L 4.366135626354795 1.0111491789866935 L 4.362816937373237 0.9904130678892942 L 4.106084133310198 1.0315015981371478 L 4.075109702815661 0.837964561228087 L 4.771250575371212 0.7265514311329454 L 4.8200827132427 1.0316684944232506 Q 4.833515501977574 1.1156003726746289 4.813710138765127 1.1785209383747484 Q 4.79390477555268 1.2414415040748676 4.74779291593033 1.2792032095735433 Q 4.70168105630798 1.316964915072219 4.638485289154001 1.3270790148255367 Q 4.567390051105775 1.338457377048019 4.5073326096972135 1.3080665275788574 Q 4.447275168288653 1.2776756781096956 4.412553696010627 1.2062654592131943 L 4.166136600595522 1.4067264656138985 L 4.131527415502138 1.1904784498838763 M 4.49513307485188 0.969236671530785 L 4.510462257290503 1.0650177561235346 Q 4.516783569636327 1.1045151105947713 4.538705469183076 1.1212611644661235 Q 4.5606273687298255 1.1380072183374759 4.596174987753939 1.1323180372262345 Q 4.62974773905449 1.1269449217322844 4.645763026781983 1.1036208877971865 Q 4.661778314509476 1.0802968538620885 4.655615034972299 1.0417869332526326 L 4.640285852533676 0.9460058486598831 L 4.49513307485188 0.969236671530785 M 4.6902606069851185 1.7673389943066584 L 4.575661892615396 1.7577403139386705 L 4.556881865808463 1.9819551898794316 L 4.408401792407692 1.9695186387939518 L 4.427181819214625 1.7453037628531907 L 4.300624978128062 1.7347034810554995 L 4.279340947746872 1.9888136737883624 L 4.122888789868207 1.9757093884164136 L 4.1605323102678815 1.5262831259751546 L 4.863072254882266 1.5851272099702107 L 4.825428734482592 2.0345534724114698 L 4.668976576603928 2.0214491870395213 L 4.6902606069851185 1.7673389943066584" fill="#ff6b00" fill-rule="nonzero"></path></g><g><path d=" M -1.0474798249192496 3.5243182620351363 Q -1.1023946524627253 3.5266871680844214 -1.1564842994354474 3.496051239987393 Q -1.2105739464081697 3.4654153118903652 -1.2544089426432152 3.399692461183221 Q -1.3204388736808153 3.300692217712966 -1.314911903669222 3.2044505811802733 Q -1.3093849336576289 3.1082089446475805 -1.2267478260639875 3.044678570427394 L -1.1257608727123638 3.1960907074995486 Q -1.1568187719952194 3.2216133815784143 -1.1623588752674434 3.2547578721572887 Q -1.1678989785396676 3.287902362736163 -1.1468137904772404 3.3195158858611187 Q -1.128502969265133 3.346969734890685 -1.1029855484905196 3.352788775792013 Q -1.0774681277159062 3.358607816693341 -1.052510083143573 3.3419616155914253 Q -1.030047843028473 3.3269800345997007 -1.0247833002611908 3.30243345460469 Q -1.0195187574939086 3.2778868746096794 -1.0243782146961746 3.2498755255579233 Q -1.0292376718984408 3.2218641765061666 -1.0414508898161343 3.174717200907567 Q -1.0594929047716246 3.1062154805178874 -1.0651884243891667 3.0589284732507087 Q -1.070883944006709 3.0116414659835304 -1.0524503519828516 2.9626853357739438 Q -1.034016759958994 2.9137292055643575 -0.9774451922617055 2.8759978164000146 Q -0.9250332986598058 2.841040794085991 -0.8690083491401844 2.842138533273542 Q -0.8129833996205631 2.843236272461093 -0.7612506511445492 2.876646192172422 Q -0.7095179026685353 2.9100561118837516 -0.669012146653873 2.970787353676429 Q -0.6035370889863368 3.0689556623276064 -0.6115617396352535 3.1578480409770884 Q -0.6195863902841701 3.24674041962657 -0.6961221422232171 3.3086054232645288 L -0.7987737156850323 3.1546974817351408 Q -0.7724303638676296 3.1311172396875167 -0.7667506041628445 3.102687671810113 Q -0.7610708444580594 3.0742581039327095 -0.7804914124102947 3.0451403852649874 Q -0.7971376135122108 3.020182340692654 -0.8207137279636366 3.013669520460737 Q -0.8442898424150626 3.00715670022882 -0.8700798218064736 3.0243577747008 Q -0.8908781922834179 3.038229608952397 -0.8962816410112251 3.0616668174432977 Q -0.9016850897390323 3.0851040259341986 -0.8969645384972912 3.1120060034818455 Q -0.8922439872555501 3.1389079810294924 -0.8803078307868705 3.1874417648172333 Q -0.8617109424613163 3.256775420025991 -0.8565699209778199 3.3050332680727723 Q -0.8514288994943235 3.3532911161195535 -0.870001022242688 3.4029406504237105 Q -0.8885731449910524 3.452590184727868 -0.9459766475074188 3.4908764472622744 Q -0.9925649973757742 3.5219493559858512 -1.0474798249192496 3.5243182620351363 M -0.07747552074887798 3.672901429195309 Q -0.04584968243887966 3.761243414407267 -0.06384623176308779 3.8544709543963784 Q -0.08184278108729592 3.94769849438549 -0.1495177328266799 4.026667481380842 Q -0.2171926845660639 4.1056364683761934 -0.3072700679953724 4.137750561770361 Q -0.39734745142468086 4.169864655164529 -0.4894903138862436 4.152139167938799 Q -0.5816331763478064 4.134413680713069 -0.6568055774299202 4.069992332422694 Q -0.7319779785120339 4.005570984132319 -0.7636038168220323 3.917228998920361 Q -0.7952296551320306 3.8288870137084023 -0.7772874040542453 3.7349544547830664 Q -0.7593451529764602 3.6410218958577305 -0.6916702012370762 3.5620529088623787 Q -0.6239952494976923 3.483083921867027 -0.5342432264132846 3.4513494870641828 Q -0.44449120332887704 3.4196150522613387 -0.35234834086731426 3.4373405394870686 Q -0.2602054784057515 3.4550660267127986 -0.18503307732363772 3.519487375003174 Q -0.1091013590588763 3.584559443983351 -0.07747552074887798 3.672901429195309 M -0.4253307884797718 3.5947303814099034 Q -0.49838126661502513 3.6039024937190107 -0.5595490114563915 3.6752783088878864 Q -0.6200660356079559 3.7458948068741145 -0.6182694730059963 3.819867926064921 Q -0.6164729104040367 3.8938410452557273 -0.5526902670616372 3.948501583199076 Q -0.4896669409018852 4.002511400452622 -0.41591144383040723 3.9932849898970924 Q -0.34215594675892924 3.984058579341562 -0.2816389226073647 3.913442081355334 Q -0.2211218984558001 3.842825583369106 -0.2229184610577598 3.768852464178299 Q -0.2247150236597193 3.694879344987493 -0.2884976670021189 3.6402188070441444 Q -0.35228031034451845 3.585558269100796 -0.4253307884797718 3.5947303814099034 M 0.09414369016759633 4.402865613324541 L 0.29861850754236235 4.503732104586783 L 0.24066451475572292 4.621215442639829 L -0.11716641565011765 4.444699082930904 L 0.19560818664113488 3.8106477851942393 L 0.34896429967220943 3.8862976536409213 L 0.09414369016759633 4.402865613324541 M 0.8139025419953512 4.068086556864147 L 0.7226720392689012 4.465756011779004 Q 0.7070197471344613 4.5339836143379255 0.7294488138720577 4.577090307150996 Q 0.7518778806096542 4.620196999964067 0.8103586828030154 4.633613250365015 Q 0.8688394849963768 4.647029500765964 0.9078152605618096 4.618009870873889 Q 0.9467910361272425 4.588990240981814 0.9624433282616824 4.520762638422893 L 1.0536738309881324 4.123093183508036 L 1.220344117239212 4.1613294971507395 L 1.1291136145127623 4.558998952065596 Q 1.106753197177848 4.656466955721198 1.0534237898777468 4.714511975464669 Q 1.0000943825776458 4.77255699520814 0.926589136129569 4.7910901747682555 Q 0.8530838896814921 4.809623354328371 0.7702360865742304 4.790616999593694 Q 0.6873882834669685 4.771610644859018 0.6316366229846979 4.723937252348418 Q 0.5758849625024274 4.676263859837819 0.5552504891109454 4.600737582901536 Q 0.5346160157194635 4.525211305965252 0.5569764330543776 4.42774330230965 L 0.6482069357808276 4.030073847394793 L 0.8139025419953512 4.068086556864147 M 1.8714338481665984 4.1541849082068385 L 1.8750588868779299 4.290136587469513 L 1.6831271043894471 4.295254289179629 L 1.6983469360377579 4.866051413142773 L 1.526408047558492 4.870636020924751 L 1.5111882159101813 4.299838896961607 L 1.32125572282262 4.304903289278908 L 1.3176306841112886 4.168951610016233 L 1.8714338481665984 4.1541849082068385 M 2.1351801598292677 4.092212529851374 L 2.2764541271338645 4.78495394348421 L 2.108902809267931 4.819123460328745 L 1.967628841963334 4.126382046695909 L 2.1351801598292677 4.092212529851374 M 2.7699186021169147 3.8970839863401374 Q 2.863253420830844 3.9067334223670724 2.9395534001965986 3.963245041957963 Q 3.0158533795623526 4.019756661548853 3.0578294785499454 4.114909208092725 Q 3.0998055775375386 4.210061754636598 3.0898466376830798 4.305172582185175 Q 3.079887697828621 4.400283409733753 3.024089198401674 4.475722308597012 Q 2.968290698974726 4.55116120746027 2.877712794091617 4.591119224765768 Q 2.7871348892085077 4.631077242071265 2.693800070494578 4.62142780604433 Q 2.6004652517806486 4.611778370017395 2.5235060000806087 4.555011094428638 Q 2.4465467483805687 4.498243818839881 2.4045706493929755 4.403091272296008 Q 2.3625945504053827 4.307938725752136 2.372755298428051 4.213285362369635 Q 2.3829160464507195 4.118631998987134 2.4387145458776667 4.043193100123874 Q 2.4945130453046143 3.967754201260616 2.5850909501877233 3.927796183955119 Q 2.676583783402985 3.887434550313203 2.7699186021169147 3.8970839863401374 M 2.5491201056708404 4.177016163781661 Q 2.52582824356413 4.246858766536728 2.5637681791875315 4.332862029759074 Q 2.6013044984745135 4.4179503646492675 2.6687923494191224 4.4482924142649125 Q 2.7362802003637308 4.478634463880558 2.8131341802645506 4.4447306916213485 Q 2.889073231833218 4.411230535698558 2.912620749937795 4.340728660609206 Q 2.936168268042372 4.270226785519854 2.8986319487553898 4.18513845062966 Q 2.861095629468408 4.100050115739466 2.793607778523799 4.069708066123821 Q 2.7261199275791905 4.0393660165081755 2.64926594767837 4.073269788767385 Q 2.5724119677775503 4.107173561026595 2.5491201056708404 4.177016163781661 M 3.958548791449136 3.8401598252105336 L 3.829621114736917 3.952492608393314 L 3.3288857729765584 3.8131508791370097 L 3.613987690528176 4.140370830558665 L 3.4850600138159566 4.252703613741446 L 3.0206197932883216 3.719651757393265 L 3.149547470000541 3.6073189742104845 L 3.652910479203771 3.749676555553624 L 3.365180894209282 3.419440752045133 L 3.494108570921501 3.307107968862353 L 3.958548791449136 3.8401598252105336 M 4.358910749147326 3.130003906009982 Q 4.382197794597161 3.1797930967467005 4.374696497492795 3.2415019335673048 Q 4.367195200388427 3.30321077038791 4.323360204153382 3.368933621095054 Q 4.257330273115782 3.4679338645653086 4.166352804114354 3.499810190170593 Q 4.075375335112925 3.531686515775877 3.9849700003383894 3.47980322902278 L 4.0859569536900135 3.3283910919506248 Q 4.1214538399333795 3.3472582874768686 4.154182738338733 3.339637971920932 Q 4.186911636744086 3.3320176563649953 4.207996824806513 3.3004041332400402 Q 4.226307646018621 3.2729502842104736 4.221875413306434 3.247155801986846 Q 4.217443180594248 3.221361319763219 4.192485136021915 3.204715118661303 Q 4.170022895906815 3.1897335376695786 4.145337785187298 3.19430467634229 Q 4.12065267446778 3.1988758150150014 4.096658716426725 3.214125076555289 Q 4.07266475838567 3.229374338095577 4.0338296262574875 3.2587653658521325 Q 3.97751860962442 3.3017429112188745 3.9360498927865337 3.3251703635733065 Q 3.8945811759486473 3.3485978159277385 3.842300308350894 3.3503897096818966 Q 3.7900194407531407 3.3521816034360543 3.733447873055852 3.3144502142717114 Q 3.6810359794539522 3.2794931919576875 3.6605229256184186 3.227347102724261 Q 3.6400098717828846 3.1752010134908346 3.6509778141240874 3.1146022986463757 Q 3.6619457564652906 3.054003583801917 3.7024515124799526 2.9932723420092393 Q 3.7679265701474893 2.895104033358062 3.853078619235283 2.8683574721557332 Q 3.938230668323077 2.8416109109534045 4.024754140923274 2.8885010878479633 L 3.9221025674614585 3.0424090293773514 Q 3.890210481943417 3.027148135520505 3.8617809140660135 3.03282789522529 Q 3.8333513461886097 3.0385076549300756 3.8139307782363745 3.0676253735977976 Q 3.7972845771344583 3.092583418170131 3.8003303768935215 3.116852186244091 Q 3.803376176652584 3.141120954318052 3.8291661560439954 3.1583220287900318 Q 3.8499645265209397 3.1721938630416284 3.873678796460854 3.1681772225029627 Q 3.897393066400769 3.164160581964297 3.9204161836622213 3.1494658185580553 Q 3.9434393009236732 3.1347710551518135 3.9836612412409975 3.105102965946244 Q 4.040527131244129 3.0612934857604244 4.083105219586125 3.038004939366517 Q 4.125683307928122 3.01471639297261 4.178657579620445 3.012785968493945 Q 4.23163185131277 3.01085554401528 4.289035353829136 3.049141806549687 Q 4.335623703697491 3.0802147152732635 4.358910749147326 3.130003906009982" fill="#ff6b00" fill-rule="nonzero"></path></g><g clip-path="url(#SvgjsClipPath1003)"><g clip-path="url(#SvgjsClipPath1001c13918ab-7143-431a-b6b4-8484200009a1)"><path d=" M 2.5403306219785367 0.5081054971579823 L 2.5403306219785367 0 L 2.0322907460910122 0 L 2.0322907460910122 1.0161453730455061 L 1.5242508702034885 1.0161453730455061 L 1.5242508702034885 0.5081054971579823 L 1.0161453730455061 0.5081054971579823 L 1.0161453730455061 0 L 0.5081054971579823 0 L 0.5081054971579823 0.5081054971579823 L 0 0.5081054971579823 L 0 1.0161453730455061 L 1.0161453730455061 1.0161453730455061 L 1.0161453730455061 1.5242508702034885 L 0.5081054971579823 1.5242508702034885 L 0.5081054971579823 2.0322907460910122 L 0 2.0322907460910122 L 0 2.5403962432489946 L 0.5081054971579823 2.5403962432489946 L 0.5081054971579823 3.048436119136518 L 1.0161453730455061 3.048436119136518 L 1.0161453730455061 2.0322907460910122 L 1.5242508702034885 2.0322907460910122 L 1.5242508702034885 2.5403962432489946 L 2.0322907460910122 2.5403962432489946 L 2.0322907460910122 3.048436119136518 L 2.5403962432489946 3.048436119136518 L 2.5403962432489946 2.5403962432489946 L 3.048436119136518 2.5403962432489946 L 3.048436119136518 2.0322907460910122 L 2.0322907460910122 2.0322907460910122 L 2.0322907460910122 1.5242508702034885 L 2.5403306219785367 1.5242508702034885 L 2.5403306219785367 1.0161453730455061 L 3.048436119136518 1.0161453730455061 L 3.048436119136518 0.5081054971579823 L 2.5403306219785367 0.5081054971579823 Z" fill="#ff6b00" transform="matrix(1,0,0,1,0,0)" fill-rule="evenodd"></path></g></g></g><defs><clipPath id="SvgjsClipPath1003"><path d=" M 0 0 h 3.048436119136518 v 3.048436119136518 h -3.048436119136518 Z"></path></clipPath><clipPath id="SvgjsClipPath1001c13918ab-7143-431a-b6b4-8484200009a1"><path d=" M 0 0 L 3.048436119136518 0 L 3.048436119136518 3.048436119136518 L 0 3.048436119136518 Z"></path></clipPath></defs></svg>